<svg width="64" height="64" viewBox="0 0 64 64" fill="none" xmlns="http://www.w3.org/2000/svg">
<path d="M32.0003 58.6667C25.8225 57.1111 20.7225 53.5667 16.7003 48.0334C12.6781 42.5 10.667 36.3556 10.667 29.6V13.3334L32.0003 5.33337L53.3337 13.3334V29.6C53.3337 36.3556 51.3225 42.5 47.3003 48.0334C43.2781 53.5667 38.1781 57.1111 32.0003 58.6667ZM32.0003 53.0667C36.3114 51.7334 39.9114 49.1 42.8003 45.1667C45.6892 41.2334 47.3781 36.8445 47.867 32H32.0003V11L16.0003 17V30.8C16.0003 31.1112 16.0448 31.5112 16.1337 32H32.0003V53.0667Z" fill="#4E6AFF"/>
</svg>
