<svg width="64" height="64" viewBox="0 0 64 64" fill="none" xmlns="http://www.w3.org/2000/svg">
<path d="M29.2003 41.4667L44.267 26.4L40.467 22.6L29.2003 33.8667L23.6003 28.2667L19.8003 32.0667L29.2003 41.4667ZM32.0003 58.6667C25.8225 57.1111 20.7225 53.5667 16.7003 48.0334C12.6781 42.5 10.667 36.3556 10.667 29.6V13.3334L32.0003 5.33337L53.3337 13.3334V29.6C53.3337 36.3556 51.3225 42.5 47.3003 48.0334C43.2781 53.5667 38.1781 57.1111 32.0003 58.6667ZM32.0003 53.0667C36.6225 51.6 40.4448 48.6667 43.467 44.2667C46.4892 39.8667 48.0003 34.9778 48.0003 29.6V17L32.0003 11L16.0003 17V29.6C16.0003 34.9778 17.5114 39.8667 20.5337 44.2667C23.5559 48.6667 27.3781 51.6 32.0003 53.0667Z" fill="#4E6AFF"/>
</svg>
