<svg width="64" height="65" viewBox="0 0 64 65" fill="none" xmlns="http://www.w3.org/2000/svg">
<path d="M15.9997 40.5H34.6663L39.9997 35.1667H15.9997V40.5ZM15.9997 29.8334H31.9997V24.5H15.9997V29.8334ZM10.6663 19.1667V45.8334H29.333L23.9997 51.1667H5.33301V13.8334H58.6663V21.8334H53.333V19.1667H10.6663ZM61.0663 33.3C61.2886 33.5223 61.3997 33.7667 61.3997 34.0334C61.3997 34.3 61.2886 34.5445 61.0663 34.7667L58.6663 37.1667L53.9997 32.5L56.3997 30.1C56.6219 29.8778 56.8663 29.7667 57.133 29.7667C57.3997 29.7667 57.6441 29.8778 57.8663 30.1L61.0663 33.3ZM34.6663 56.5V51.8334L52.3997 34.1L57.0663 38.7667L39.333 56.5H34.6663Z" fill="#4E6AFF"/>
</svg>
