<svg width="64" height="64" viewBox="0 0 64 64" fill="none" xmlns="http://www.w3.org/2000/svg">
<path d="M22.9337 60L17.867 51.4667L8.26699 49.3333L9.20033 39.4667L2.66699 32L9.20033 24.5333L8.26699 14.6667L17.867 12.5333L22.9337 4L32.0003 7.86667L41.067 4L46.1337 12.5333L55.7337 14.6667L54.8003 24.5333L61.3337 32L54.8003 39.4667L55.7337 49.3333L46.1337 51.4667L41.067 60L32.0003 56.1333L22.9337 60ZM25.2003 53.2L32.0003 50.2667L38.9337 53.2L42.667 46.8L50.0003 45.0667L49.3337 37.6L54.267 32L49.3337 26.2667L50.0003 18.8L42.667 17.2L38.8003 10.8L32.0003 13.7333L25.067 10.8L21.3337 17.2L14.0003 18.8L14.667 26.2667L9.73366 32L14.667 37.6L14.0003 45.2L21.3337 46.8L25.2003 53.2ZM29.2003 41.4667L44.267 26.4L40.5337 22.5333L29.2003 33.8667L23.467 28.2667L19.7337 32L29.2003 41.4667Z" fill="#4E6AFF"/>
</svg>
