<svg width="1376" height="169" viewBox="0 0 1376 169" fill="none" xmlns="http://www.w3.org/2000/svg">
<path d="M128.998 104.92H37.494V82.2159H155.486C152.39 72.5839 142.414 63.6399 124.87 63.6399H39.2141C19.6061 63.6399 8.25405 70.8639 8.25405 86.6879V103.544C8.25405 117.304 19.9501 125.216 37.1501 125.216H129.686V149.296H5.15805C8.25405 162.368 18.2301 169.248 36.1181 169.248H129.342C148.95 169.248 158.582 161.68 158.582 145.512V128.656C158.582 113.864 147.23 105.952 128.998 104.92Z" fill="white"/>
<path d="M315.794 63.9841H202.962V169.592H234.954V129H318.202C341.25 129 353.978 121.088 353.978 102.512V90.8161C353.634 73.6161 339.186 63.9841 315.794 63.9841ZM326.114 97.6961C326.114 105.264 324.738 109.392 312.354 109.392H234.954L235.298 81.8721H310.978C324.738 81.8721 326.458 86.0001 326.458 93.2241V97.6961H326.114Z" fill="white"/>
<path d="M446.856 59.512L427.592 83.248L460.272 128.312H392.16L375.304 146.2H473.688L490.544 169.592H528.384L446.856 59.512Z" fill="white"/>
<path d="M589.614 82.2159H709.326C706.23 69.8319 694.19 63.6399 676.99 63.6399H587.55C572.07 63.6399 557.278 69.8319 557.278 86.6879V145.856C557.278 162.712 572.07 168.904 587.55 168.904H678.022C698.662 168.904 705.886 163.056 709.326 148.952H589.614V82.2159Z" fill="white"/>
<path d="M785.354 149.64V117.304H849.682V99.416H753.018V169.592H895.778V149.64H785.354Z" fill="white"/>
<path d="M900.583 63.9841H756.447V82.5601H900.583V63.9841Z" fill="white"/>
<path d="M989.344 63.9841H939.12L998.288 107.328C1006.89 101.48 1016.86 95.2881 1025.81 90.1281L989.344 63.9841Z" fill="white"/>
<path d="M1062.27 117.992C1053.67 123.84 1045.07 130.376 1036.82 136.568L1081.54 169.248H1132.1L1062.27 117.992Z" fill="white"/>
<path d="M1372.56 2.40796C1097.36 18.232 970.077 135.88 941.525 163.744L935.677 169.248H986.589C1124.19 31.304 1321.99 6.87996 1372.56 2.40796Z" fill="white"/>
</svg>
