<svg width="192" height="24" viewBox="0 0 192 24" fill="none" xmlns="http://www.w3.org/2000/svg">
<g clip-path="url(#clip0_108_1464)">
<path d="M17.9997 14.64H5.23173V11.472H21.6957C21.2637 10.128 19.8717 8.88 17.4237 8.88H5.47173C2.73573 8.88 1.15173 9.888 1.15173 12.096V14.448C1.15173 16.368 2.78373 17.472 5.18373 17.472H18.0957V20.832H0.719727C1.15173 22.656 2.54373 23.616 5.03973 23.616H18.0477C20.7837 23.616 22.1277 22.56 22.1277 20.304V17.952C22.1277 15.888 20.5437 14.784 17.9997 14.64Z" fill="white"/>
<path d="M44.0643 8.928H28.3203V23.664H32.7843V18H44.4003C47.6163 18 49.3923 16.896 49.3923 14.304V12.672C49.3443 10.272 47.3283 8.928 44.0643 8.928ZM45.5043 13.632C45.5043 14.688 45.3123 15.264 43.5843 15.264H32.7843L32.8323 11.424H43.3923C45.3123 11.424 45.5523 12 45.5523 13.008V13.632H45.5043Z" fill="white"/>
<path d="M62.352 8.304L59.664 11.616L64.224 17.904H54.72L52.368 20.4H66.096L68.448 23.664H73.728L62.352 8.304Z" fill="white"/>
<path d="M82.2718 11.472H98.9758C98.5438 9.744 96.8638 8.88 94.4638 8.88H81.9838C79.8238 8.88 77.7598 9.744 77.7598 12.096V20.352C77.7598 22.704 79.8238 23.568 81.9838 23.568H94.6078C97.4878 23.568 98.4958 22.752 98.9758 20.784H82.2718V11.472Z" fill="white"/>
<path d="M109.584 20.88V16.368H118.56V13.872H105.072V23.664H124.992V20.88H109.584Z" fill="white"/>
<path d="M125.663 8.92802H105.551V11.52H125.663V8.92802Z" fill="white"/>
<path d="M138.048 8.928H131.04L139.296 14.976C140.496 14.16 141.888 13.296 143.136 12.576L138.048 8.928Z" fill="white"/>
<path d="M148.224 16.464C147.024 17.28 145.824 18.192 144.672 19.056L150.912 23.616H157.968L148.224 16.464Z" fill="white"/>
<path d="M191.52 0.335999C153.12 2.544 135.36 18.96 131.376 22.848L130.56 23.616H137.664C156.864 4.368 184.464 0.959999 191.52 0.335999Z" fill="white"/>
</g>
<defs>
<clipPath id="clip0_108_1464">
<rect width="192" height="24" fill="white"/>
</clipPath>
</defs>
</svg>
