<svg width="20" height="20" viewBox="0 0 20 20" fill="none" xmlns="http://www.w3.org/2000/svg">
<path d="M19.004 0.61084L11.2001 6.43118L12.6432 2.99726L19.004 0.61084Z" fill="#E2761B"/>
<path d="M0.988385 0.61084L8.72956 6.48631L7.35701 2.99726L0.988385 0.61084ZM16.1962 14.1024L14.1178 17.3L18.5649 18.5287L19.8433 14.1732L16.1962 14.1024ZM0.164856 14.1732L1.43544 18.5287L5.8825 17.3L3.80407 14.1024L0.164856 14.1732Z" fill="#E4761B"/>
<path d="M5.6313 8.69945L4.39209 10.5818L8.80778 10.7787L8.65091 6.01375L5.6313 8.69945ZM14.3607 8.69945L11.3019 5.95862L11.1999 10.7787L15.6078 10.5818L14.3607 8.69945ZM5.88229 17.3L8.53327 16.0005L6.24307 14.2048L5.88229 17.3ZM11.4588 16.0005L14.1176 17.3L13.749 14.2048L11.4588 16.0005Z" fill="#E4761B"/>
<path d="M14.1178 17.3001L11.4589 16.0005L11.6707 17.7411L11.6472 18.4736L14.1178 17.3001ZM5.88248 17.3001L8.35307 18.4736L8.33738 17.7411L8.53346 16.0005L5.88248 17.3001Z" fill="#D7C1B3"/>
<path d="M8.39212 13.0549L6.18036 12.4012L7.74114 11.6845L8.39212 13.0549ZM11.6 13.0549L12.2509 11.6845L13.8196 12.4012L11.6 13.0549Z" fill="#233447"/>
<path d="M5.8823 17.3L6.25877 14.1024L3.80386 14.1733L5.8823 17.3ZM13.7411 14.1024L14.1176 17.3L16.196 14.1733L13.7411 14.1024ZM15.6078 10.5818L11.1999 10.7787L11.6078 13.0549L12.2588 11.6845L13.8274 12.4012L15.6078 10.5818ZM6.18033 12.4012L7.74896 11.6845L8.3921 13.0549L8.80779 10.7787L4.3921 10.5818L6.18033 12.4012Z" fill="#CD6116"/>
<path d="M4.39209 10.5818L6.24307 14.2048L6.18032 12.4012L4.39209 10.5818ZM13.8274 12.4012L13.749 14.2048L15.6078 10.5818L13.8274 12.4012ZM8.80778 10.7787L8.39209 13.0549L8.90974 15.7406L9.02738 12.2043L8.80778 10.7787ZM11.1999 10.7787L10.9882 12.1964L11.0823 15.7406L11.6078 13.0549L11.1999 10.7787Z" fill="#E4751F"/>
<path d="M11.6078 13.0549L11.0823 15.7406L11.4588 16.0005L13.749 14.2048L13.8274 12.4012L11.6078 13.0549ZM6.18036 12.4012L6.2431 14.2048L8.5333 16.0005L8.90977 15.7406L8.39212 13.0549L6.18036 12.4012Z" fill="#F6851B"/>
<path d="M11.6472 18.4736L11.6707 17.7412L11.4746 17.5679H8.51777L8.33738 17.7412L8.35307 18.4736L5.88248 17.3001L6.74522 18.0089L8.49424 19.2297H11.4982L13.255 18.0089L14.1178 17.3001L11.6472 18.4736Z" fill="#C0AD9E"/>
<path d="M11.4587 16.0005L11.0823 15.7406H8.90971L8.53324 16.0005L8.33716 17.7411L8.51755 17.5678H11.4744L11.6705 17.7411L11.4587 16.0005Z" fill="#161616"/>
<path d="M19.3333 6.80922L20 3.59583L19.0039 0.61084L11.4588 6.23428L14.3608 8.69945L18.4627 9.90448L19.3725 8.84122L18.9804 8.55768L19.6078 7.98274L19.1216 7.60469L19.749 7.12426L19.3333 6.80922ZM0 3.59583L0.666667 6.80922L0.243137 7.12426L0.870588 7.60469L0.392157 7.98274L1.01961 8.55768L0.627451 8.84122L1.52941 9.90448L5.63137 8.69945L8.53333 6.23428L0.988236 0.61084L0 3.59583Z" fill="#763D16"/>
<path d="M18.4629 9.90441L14.3609 8.69939L15.608 10.5817L13.7492 14.2047L16.1962 14.1732H19.8433L18.4629 9.90441ZM5.63152 8.69939L1.52956 9.90441L0.164856 14.1732H3.80407L6.24329 14.2047L4.39231 10.5817L5.63152 8.69939ZM11.2002 10.7786L11.459 6.23421L12.6511 2.99719H7.35701L8.53348 6.23421L8.80799 10.7786L8.90211 12.2121L8.90995 15.7405H11.0825L11.0982 12.2121L11.2002 10.7786Z" fill="#F6851B"/>
</svg>
