<svg width="24" height="24" viewBox="0 0 24 24" fill="none" xmlns="http://www.w3.org/2000/svg">
<path d="M20.8823 11.8921H18.755C18.755 7.63077 15.2282 4.17645 10.8773 4.17645C6.58037 4.17645 3.08689 7.5462 3.00139 11.7346C2.91293 16.064 7.06001 19.8235 11.4809 19.8235H12.037C15.9345 19.8235 21.1585 16.8352 21.9747 13.1941C22.1254 12.523 21.5841 11.8921 20.8823 11.8921ZM7.71596 12.082C7.71596 12.6518 7.24009 13.1179 6.65827 13.1179C6.07644 13.1179 5.6006 12.6516 5.6006 12.082V10.4061C5.6006 9.83623 6.07644 9.37015 6.65827 9.37015C7.24009 9.37015 7.71596 9.83623 7.71596 10.4061V12.082ZM11.3886 12.082C11.3886 12.6518 10.9128 13.1179 10.331 13.1179C9.74914 13.1179 9.27332 12.6516 9.27332 12.082V10.4061C9.27332 9.83623 9.74935 9.37015 10.331 9.37015C10.9128 9.37015 11.3886 9.83623 11.3886 10.4061V12.082Z" fill="#5444BD"/>
</svg>
