<svg width="19" height="22" viewBox="0 0 19 22" fill="none" xmlns="http://www.w3.org/2000/svg">
<path fill-rule="evenodd" clip-rule="evenodd" d="M19 7.61154L18.3429 5.86214L18.7994 4.85719C18.8581 4.72783 18.8298 4.576 18.7283 4.47561L17.4863 3.24348C16.9432 2.70506 16.1329 2.51995 15.403 2.76824L15.0558 2.88628L13.2418 0.853516H10.5732H8.88203H6.57177L4.781 2.91089L4.44336 2.79437C3.70676 2.5402 2.88665 2.7273 2.33995 3.2742L1.07601 4.52942C0.994903 4.60979 0.972702 4.73044 1.01979 4.83347L1.4967 5.87653L0.842957 7.62507L1.26614 9.20153L3.19342 16.3871C3.41531 17.2156 3.92667 17.9412 4.63796 18.438C4.63796 18.438 6.97796 20.0562 9.28705 21.526C9.49008 21.6554 9.70245 21.7499 9.93037 21.7464C10.1583 21.7495 10.3707 21.6554 10.5732 21.5253C13.1667 19.8585 15.2186 18.4314 15.2186 18.4314C15.9292 17.9337 16.4396 17.2074 16.6607 16.3786L18.5788 9.19022L19 7.61154Z" fill="url(#paint0_linear_306_44)"/>
<path fill-rule="evenodd" clip-rule="evenodd" d="M16.9494 7.95848L16.9194 8.05215L16.8715 8.22011C16.7438 8.37606 16.4746 8.67537 16.2731 8.8856L14.4203 10.8165C14.2188 11.0265 14.105 11.2899 14.2201 11.5552L14.4699 12.1591C14.5848 12.4242 14.5961 12.8629 14.486 13.1574C14.3741 13.4572 14.1814 13.7221 13.9289 13.924L13.7356 14.0785C13.5076 14.2608 13.1036 14.3087 12.8377 14.1848L11.9843 13.7878C11.7187 13.6644 11.3222 13.4053 11.1033 13.2123L10.296 12.5009C10.1385 12.3619 10.1296 12.1231 10.2761 11.9737L12.2423 10.6732C12.4862 10.512 12.6153 10.2138 12.4767 9.95952L11.7776 8.71262C11.639 8.45818 11.5836 8.12035 11.6544 7.96152C11.7253 7.80273 12.0083 7.58923 12.2838 7.48705L14.5661 6.65578C14.8413 6.55364 14.8266 6.4482 14.5336 6.42118L13.0752 6.31488C12.782 6.28785 12.5672 6.32969 12.2838 6.40722L11.1799 6.67495C10.8965 6.75252 10.8366 7.04813 10.8897 7.3313L11.3451 9.75194C11.3985 10.0353 11.4246 10.3207 11.4032 10.3863C11.3818 10.4519 11.1296 10.5575 10.8426 10.6214L10.465 10.7052C10.178 10.769 9.70774 10.7719 9.4201 10.712L8.96337 10.6166C8.6755 10.5564 8.42254 10.4536 8.40096 10.3883C8.37961 10.3227 8.40539 10.0369 8.45858 9.75369L8.91108 7.33262C8.96427 7.04922 8.90388 6.75404 8.62044 6.6767L7.51619 6.41029C7.23275 6.33296 7.0177 6.29201 6.72469 6.319L5.26631 6.42662C4.97331 6.45384 4.95884 6.55928 5.23404 6.66103L7.51774 7.48989C7.79294 7.59184 8.07638 7.80491 8.14734 7.9637C8.21853 8.12229 8.16336 8.46016 8.02522 8.7146L7.3275 9.96194C7.18932 10.2164 7.31864 10.5146 7.56269 10.6756L9.53068 11.9741C9.6775 12.1234 9.66882 12.3623 9.51151 12.5013L8.70485 13.2138C8.48638 13.4071 8.09015 13.6663 7.82455 13.7905L6.97182 14.1885C6.70619 14.3124 6.30194 14.2651 6.07391 14.0833L5.88059 13.929C5.62763 13.7273 5.43451 13.4626 5.31328 13.1391C5.21184 12.8684 5.22253 12.43 5.33688 12.1645L5.5863 11.5607C5.70088 11.2952 5.58669 11.0317 5.3849 10.822L3.52997 8.89322C3.32842 8.68346 3.05878 8.38435 2.93105 8.22882L2.8828 8.06062L2.85275 7.96696C2.84987 7.85914 2.88926 7.5154 2.93397 7.42236C2.97868 7.32978 3.14999 7.05836 3.31481 6.81963L3.7117 6.24431C3.87656 6.00554 4.16155 5.62583 4.34488 5.4004L4.92661 4.68589C5.10993 4.46061 5.26635 4.27721 5.28991 4.27873C5.29104 4.27721 5.52841 4.32056 5.81741 4.3748L6.6986 4.54055C6.9876 4.59483 7.30639 4.65451 7.40717 4.67302C7.50775 4.69176 7.81919 4.63425 8.09929 4.54537L8.73312 4.34428C9.01298 4.2552 9.43787 4.13802 9.67703 4.08355L9.89861 4.08681L10.1202 4.08331C10.3593 4.13736 10.7843 4.25412 11.0644 4.34277L11.6986 4.5432C11.9787 4.63184 12.2902 4.68892 12.3908 4.67018C12.4773 4.65408 12.7244 4.60735 12.9754 4.55984L13.0991 4.53643L13.9801 4.37002C14.2691 4.31531 14.5065 4.27177 14.5234 4.27305C14.5311 4.27177 14.6875 4.45451 14.8713 4.67998L15.4539 5.39383C15.6377 5.61887 15.9229 5.99815 16.0882 6.23688L16.4858 6.81154C16.6508 7.05007 16.9087 7.48426 16.9247 7.58293C16.9412 7.68161 16.9521 7.85063 16.9494 7.95848ZM10.0188 13.7207C10.0446 13.7207 10.2884 13.8106 10.5603 13.921L10.8126 14.0235C11.0844 14.1337 11.5218 14.3306 11.7841 14.4611L12.5285 14.8314C12.7908 14.9617 12.8097 15.2057 12.5703 15.3734L11.9354 15.8182C11.696 15.986 11.3196 16.277 11.0991 16.4656C11.0387 16.5173 10.9679 16.5778 10.8924 16.6424C10.6918 16.8138 10.4581 17.0135 10.2985 17.1501C10.0786 17.3381 9.72248 17.339 9.50689 17.1525C9.2911 16.9658 8.93402 16.6602 8.7131 16.4735C8.49241 16.2866 8.11511 15.9977 7.87463 15.8317L7.24192 15.3939C7.00141 15.2274 7.01855 14.9824 7.27952 14.8493L8.0279 14.4676C8.28887 14.3343 8.72468 14.1348 8.99654 14.0246L9.24883 13.9217C9.52046 13.8113 9.76408 13.7207 9.79009 13.7207H9.90444H10.0188Z" fill="url(#paint1_linear_306_44)"/>
<defs>
<linearGradient id="paint0_linear_306_44" x1="0.842957" y1="21.8939" x2="19" y2="21.8939" gradientUnits="userSpaceOnUse">
<stop stop-color="#FF5500"/>
<stop offset="0.409877" stop-color="#FF5500"/>
<stop offset="0.49434" stop-color="#FF4530"/>
<stop offset="0.572365" stop-color="#FF2000"/>
<stop offset="1" stop-color="#FF2000"/>
</linearGradient>
<linearGradient id="paint1_linear_306_44" x1="9.90122" y1="20.3803" x2="16.4941" y2="20.3803" gradientUnits="userSpaceOnUse">
<stop stop-color="white"/>
<stop offset="1" stop-color="#F4F4F4"/>
</linearGradient>
</defs>
</svg>
